<svg id="Layer_1" data-name="Layer 1" xmlns="http://www.w3.org/2000/svg" viewBox="0 0 1026.24 168.11"><defs><style>.cls-1{fill:#1d0f44;}</style></defs><path class="cls-1" d="M304.16,89c0,49.77-37.49,59.48-71.41,59.48h-45v-2.9c7.33,0,12.78-8.86,12.78-20.45V52c0-10.56-5.28-20.62-12.78-20.62v-2.9h45C266.67,28.46,304.16,39,304.16,89Zm-29.82,0c0-53.18-24.89-57.61-41.59-57.61h-7.5V145.55h7.5C249.45,145.55,274.34,142,274.34,89Z"/><path class="cls-1" d="M373.27,28.46v2.9c-7.33,0-14.48,4.6-14.48,15.17v81.3c0,11.59,7.33,17.72,14.48,17.72v2.9H319.59v-2.9c7.33,0,14.48-6.13,14.48-17.72V46.53c0-10.57-7-15.17-14.48-15.17v-2.9Z"/><path class="cls-1" d="M506.51,145.55v2.9H457.77v-2.9c13.29,0,4.43-18.23,4.43-18.23l-5.12-12.44H416.69s-10.57,32,16.36,30.67v2.9H391.13v-2.9c4.43-.34,8.69,1,25.39-39.37L446,28.46h2.89c41.76,100.22,43.29,104.65,43.29,104.65C498,146.75,502.08,145.21,506.51,145.55ZM456.06,112,435.78,62.21,417.2,112Z"/><path class="cls-1" d="M612.21,28.46V62.72h-2.89C608,32.21,571.65,31.36,571.65,31.36h-3.24v96.47c0,11.59,7.33,17.72,14.49,17.72v2.9H529.21v-2.9c7.16,0,14.49-6.13,14.49-17.72V31.36h-3.24s-36.13.85-37.49,31.36h-2.9V28.46Z"/><path class="cls-1" d="M729.28,111.3v37.15h-96v-2.9c7.16,0,9.89-8.86,9.89-20.45V52c0-10.56-2.39-20.62-9.89-20.62v-2.9h93.74V60.85h-2.9c-3.92-29.49-50.1-29.49-50.1-29.49h-6.14V86.41h6.14s25.9,0,27.61-17.72h2.89V107h-2.89C700,89.31,674.06,89.31,674.06,89.31h-6.14v56.24h6.14s45.16,0,52.32-34.25Z"/><path class="cls-1" d="M890.74,28.46v2.9c-25.73-.17-25.39,40.39-25.39,40.39v76.7h-9L781.84,54.88V105s-.17,40.56,23.35,40.56v2.9H753.37v-2.9c25.74,0,25.57-40.56,25.57-40.56V51.81l-6.65-8.35C761.38,29.83,756.44,31.7,752,31.36v-2.9h41.76l68.68,84.71V71.75s.17-40.56-23.35-40.39v-2.9Z"/><path class="cls-1" d="M999.39,145.55v2.9H950.64v-2.9c13.3,0,4.43-18.23,4.43-18.23L950,114.88H909.57s-10.57,32,16.36,30.67v2.9H884v-2.9c4.43-.34,8.7,1,25.4-39.37l29.48-77.72h2.9c41.76,100.22,43.29,104.65,43.29,104.65C990.87,146.75,995,145.21,999.39,145.55ZM948.94,112,928.66,62.21,910.08,112Z"/><path class="cls-1" d="M88.41,91.19a2.73,2.73,0,0,1-1.93-.8L69.71,73.62a26.45,26.45,0,1,1,37.4,0L90.34,90.39A2.73,2.73,0,0,1,88.41,91.19Zm0-57.27A21,21,0,0,0,73.57,69.76L88.41,84.6l14.84-14.84A21,21,0,0,0,88.41,33.92Z"/><path class="cls-1" d="M122,114.91a26.31,26.31,0,0,1-18.7-7.75L86.48,90.39a2.72,2.72,0,0,1,0-3.86l16.77-16.77A26.45,26.45,0,1,1,122,114.91ZM92.27,88.46l14.84,14.84a21,21,0,1,0,0-29.68Z"/><path class="cls-1" d="M54.86,114.91A26.45,26.45,0,1,1,73.57,69.76L90.34,86.53a2.74,2.74,0,0,1,0,3.86L73.57,107.16A26.32,26.32,0,0,1,54.86,114.91Zm0-47.44A21,21,0,1,0,69.71,103.3L84.55,88.46,69.71,73.62A20.85,20.85,0,0,0,54.86,67.47Z"/><path class="cls-1" d="M88.41,148.45a26.45,26.45,0,0,1-18.7-45.15L86.48,86.53a2.72,2.72,0,0,1,3.86,0l16.77,16.77a26.45,26.45,0,0,1-18.7,45.15Zm0-56.13L73.57,107.16a21,21,0,1,0,29.68,0Z"/><path class="cls-1" d="M88.41,91.19a2.72,2.72,0,0,1-1.76-.65c-.37-.31-9-7.69-9-17.2s8.62-16.89,9-17.2a2.72,2.72,0,0,1,3.52,0c.37.31,9,7.69,9,17.2s-8.61,16.89-9,17.2A2.74,2.74,0,0,1,88.41,91.19Zm0-29.13c-2.09,2.29-5.29,6.58-5.29,11.28s3.21,9,5.29,11.27C90.5,82.32,93.7,78,93.7,73.34S90.5,64.36,88.41,62.06Z"/><path class="cls-1" d="M88.41,121.42a2.71,2.71,0,0,1-1.76-.64c-.37-.31-9-7.7-9-17.21s8.62-16.89,9-17.2a2.72,2.72,0,0,1,3.52,0c.37.31,9,7.7,9,17.2s-8.61,16.9-9,17.21A2.73,2.73,0,0,1,88.41,121.42Zm0-29.12c-2.09,2.29-5.29,6.57-5.29,11.27s3.21,9,5.29,11.28c2.09-2.3,5.29-6.58,5.29-11.28S90.5,94.59,88.41,92.3Z"/><path class="cls-1" d="M103.53,99.2c-9.51,0-16.9-8.61-17.21-9a2.72,2.72,0,0,1,0-3.52c.31-.37,7.7-9,17.21-9s16.89,8.62,17.2,9a2.72,2.72,0,0,1,0,3.52C120.42,90.59,113,99.2,103.53,99.2ZM92.25,88.46c2.29,2.09,6.57,5.28,11.28,5.28s9-3.19,11.27-5.28c-2.29-2.09-6.57-5.29-11.27-5.29S94.54,86.37,92.25,88.46Z"/><path class="cls-1" d="M73.29,99.2c-9.51,0-16.89-8.61-17.2-9a2.72,2.72,0,0,1,0-3.52c.31-.37,7.69-9,17.2-9s16.89,8.62,17.2,9a2.72,2.72,0,0,1,0,3.52C90.18,90.59,82.8,99.2,73.29,99.2ZM62,88.46c2.29,2.09,6.57,5.28,11.27,5.28s9-3.19,11.28-5.28c-2.29-2.09-6.57-5.29-11.28-5.29S64.32,86.38,62,88.46Z"/></svg>